<?xml version="1.0" encoding="UTF-8" standalone="no"?>
<!-- Created with Inkscape (http://www.inkscape.org/) -->

<svg
   xmlns:dc="http://purl.org/dc/elements/1.1/"
   xmlns:cc="http://creativecommons.org/ns#"
   xmlns:rdf="http://www.w3.org/1999/02/22-rdf-syntax-ns#"
   xmlns:svg="http://www.w3.org/2000/svg"
   xmlns="http://www.w3.org/2000/svg"
   xmlns:sodipodi="http://sodipodi.sourceforge.net/DTD/sodipodi-0.dtd"
   xmlns:inkscape="http://www.inkscape.org/namespaces/inkscape"
   width="243"
   height="338"
   id="svg2"
   version="1.1"
   inkscape:version="0.48.3.1 r9886"
   sodipodi:docname="bpx4_color.svg">
  <defs
     id="defs4" />
  <sodipodi:namedview
     id="base"
     pagecolor="#ffffff"
     bordercolor="#666666"
     borderopacity="1.0"
     inkscape:pageopacity="0.0"
     inkscape:pageshadow="2"
     inkscape:zoom="1.979899"
     inkscape:cx="276.65211"
     inkscape:cy="198.63078"
     inkscape:document-units="px"
     inkscape:current-layer="layer1"
     showgrid="false"
     inkscape:window-width="1920"
     inkscape:window-height="1031"
     inkscape:window-x="1916"
     inkscape:window-y="-4"
     inkscape:window-maximized="1"
     inkscape:snap-grids="true" />
  <metadata
     id="metadata7">
    <rdf:RDF>
      <cc:Work
         rdf:about="">
        <dc:format>image/svg+xml</dc:format>
        <dc:type
           rdf:resource="http://purl.org/dc/dcmitype/StillImage" />
        <dc:title />
      </cc:Work>
    </rdf:RDF>
  </metadata>
  <g
     inkscape:label="Layer 1"
     inkscape:groupmode="layer"
     id="layer1"
     transform="translate(0,-714.36217)"
     style="display:inline">
    <path
       style="fill:none;stroke:#000000;stroke-width:0.9998163px;stroke-linecap:butt;stroke-linejoin:miter;stroke-opacity:1;display:inline"
       d="M 89.87517,714.86211 C 28.46184,733.7394 1.6954486,806.33605 40.687525,846.75076 5.0109694,825.94954 17.78886,791.76958 14.062448,768.7484 -4.5462846,809.75218 5.9566371,874.71562 47.812547,885.29898 29.819782,890.20658 9.4608634,866.27869 0.49990815,851.12414 9.3752451,891.01448 29.093793,913.31252 70.687613,921.37937 c -16.530557,5.01257 -29.564296,-1.08161 -44.812631,-8.02828 26.178577,21.73981 55.001071,37.70912 81.625238,21.1618 0.50172,9.72502 -7.02988,34.23814 -14.687542,40.59657 0.568212,1.45156 3.19259,11.79306 2.687508,16.40018 1.073293,-4.35467 10.696584,-22.73523 12.906284,-23.36635 -0.50507,6.50046 -7.49129,31.96821 -11.46878,40.17261 3.47241,3.0925 12.71388,13.6533 16.31254,28.9893 -1.01015,-8.9618 -1.00428,-46.01344 2.53127,-55.417 2.9042,8.20445 6.81191,45.2976 6.87501,69.9741 -0.0631,-24.6134 4.22336,-67.3101 6.87503,-71.28611 1.6415,2.90311 5.48716,42.18291 3.65626,56.63531 1.89404,-7.5102 9.34219,-24.8643 15.71879,-31.2385 -6.12406,-11.73864 -13.567,-28.18149 -11.78128,-37.64228 2.54464,1.69581 12.08485,20.30498 12.84378,22.49167 -0.17857,-4.81964 0.19196,-10.1748 2.15626,-16.24398 -7.96592,-8.49381 -17.32741,-26.54656 -15.75005,-40.69029 27.56919,16.6317 71.16138,-4.58325 78.59398,-21.44294 -11.7247,6.20377 -29.7609,15.72277 -43.21887,9.99629 36.3257,-5.7371 66.98742,-37.92146 68.9377,-71.75467 -10.13209,13.73995 -27.46802,36.58498 -44.65638,35.33066 37.9302,-22.90953 62.64369,-75.6856 34.03135,-114.42636 1.76226,29.99372 -2.57722,56.75276 -24.03133,74.44118 34.65489,-55.85929 11.42321,-129.43195 -55.3439,-130.29549 69.29039,27.33649 48.1918,98.22309 -0.71876,121.01767 -2.58929,4.90889 -3.92857,14.56604 -8.12501,19.11792 -2.37616,0.11053 -4.57916,0.17043 -6.75003,0.21867 -1.68873,-10.88966 -2.85379,-26.3876 -1.71875,-30.92604 7.5893,-8.21125 9.8036,-19.83641 9.00003,-24.20979 -3.30359,8.30051 -10.53129,12.05804 -10.53129,12.05804 -3.21429,0.1785 -6.42859,0.5489 -8.75002,1.53068 -14.73219,7.05096 -15.2813,18.00672 -18.4063,25.14694 6.9643,-10.62107 9.37502,-10.88883 13.12503,-11.24584 0.84333,5.90101 -4.61222,17.37088 -7.62502,27.3961 -1.97763,-0.0499 -3.82913,-0.10794 -6.03127,-0.15619 C 99.686348,849.2768 95.510176,843.359 93.187679,836.75446 87.026952,834.07688 77.839425,829.525 72.125117,826.75817 26.026425,793.09984 56.306661,735.37563 92.187677,714.92459 c -0.770093,-0.0418 -1.535236,-0.0629 -2.312507,-0.0625 z"
       id="path3064"
       inkscape:connector-curvature="0"
       sodipodi:nodetypes="cccccccccccccccccccccccccccccccccccccccccccc" />
  </g>
</svg>
