<?xml version="1.0" encoding="UTF-8" standalone="no"?>
<!-- Created with Inkscape (http://www.inkscape.org/) -->

<svg
   xmlns:dc="http://purl.org/dc/elements/1.1/"
   xmlns:cc="http://creativecommons.org/ns#"
   xmlns:rdf="http://www.w3.org/1999/02/22-rdf-syntax-ns#"
   xmlns:svg="http://www.w3.org/2000/svg"
   xmlns="http://www.w3.org/2000/svg"
   xmlns:sodipodi="http://sodipodi.sourceforge.net/DTD/sodipodi-0.dtd"
   xmlns:inkscape="http://www.inkscape.org/namespaces/inkscape"
   width="1000"
   height="1000"
   id="svg2"
   version="1.1"
   inkscape:version="0.48.3.1 r9886"
   sodipodi:docname="drawing.svg">
  <defs
     id="defs4" />
  <sodipodi:namedview
     id="base"
     pagecolor="#ffffff"
     bordercolor="#666666"
     borderopacity="1.0"
     inkscape:pageopacity="0.0"
     inkscape:pageshadow="2"
     inkscape:zoom="1"
     inkscape:cx="305.67606"
     inkscape:cy="460.67092"
     inkscape:document-units="px"
     inkscape:current-layer="layer6"
     showgrid="false"
     inkscape:window-width="1920"
     inkscape:window-height="1033"
     inkscape:window-x="-4"
     inkscape:window-y="-4"
     inkscape:window-maximized="1" />
  <metadata
     id="metadata7">
    <rdf:RDF>
      <cc:Work
         rdf:about="">
        <dc:format>image/svg+xml</dc:format>
        <dc:type
           rdf:resource="http://purl.org/dc/dcmitype/StillImage" />
        <dc:title></dc:title>
      </cc:Work>
    </rdf:RDF>
  </metadata>
  <g
     inkscape:groupmode="layer"
     id="layer10"
     inkscape:label="a2_path"
     style="display:inline" />
  <g
     inkscape:groupmode="layer"
     id="layer11"
     inkscape:label="a1_path"
     style="display:inline" />
  <g
     inkscape:groupmode="layer"
     id="layer9"
     inkscape:label="c2_path"
     style="display:inline" />
  <g
     inkscape:groupmode="layer"
     id="layer8"
     inkscape:label="c1_path"
     style="display:inline" />
  <g
     inkscape:groupmode="layer"
     id="layer7"
     inkscape:label="s2_path"
     style="display:inline" />
  <g
     inkscape:groupmode="layer"
     id="layer6"
     inkscape:label="s1_path"
     style="display:inline">
    <g
       id="g4015"
       transform="matrix(1.0046722,0,0,1.0003021,-0.50693566,-0.28281517)">
      <path
         sodipodi:nodetypes="ccc"
         inkscape:connector-curvature="0"
         id="path3112"
         d="m 325.26912,645.43646 c 22.72843,42.17387 63.89214,25.00127 133.59267,-13.8896 -32.82996,68.94291 -135.1079,145.20943 -133.59267,13.8896 z"
         style="fill:none;stroke:#000000;stroke-width:1px;stroke-linecap:butt;stroke-linejoin:miter;stroke-opacity:1;display:inline" />
      <path
         sodipodi:nodetypes="cccc"
         inkscape:connector-curvature="0"
         id="path3114"
         d="m 410.37447,465.88184 c 22.72843,16.16244 14.14214,46.46702 13.13199,51.77032 35.35534,19.44544 77.27667,122.48099 16.16244,226.02163 C 547.75522,590.1306 484.36814,465.37676 410.37447,465.88184 z"
         style="fill:none;stroke:#000000;stroke-width:1px;stroke-linecap:butt;stroke-linejoin:miter;stroke-opacity:1;display:inline" />
      <path
         sodipodi:nodetypes="zcccccz"
         inkscape:connector-curvature="0"
         id="path3116"
         d="m 410.71429,475.35714 c -19.28679,-23.93293 -55,11.07143 -55,11.07143 -29.64286,25 -91.42857,86.78571 -89.64286,175.35714 C 265.35714,726.07142 326.42857,836.42857 375,867.5 325.71429,809.64286 299.64286,728.21429 308.57143,665 c 5.32333,-36.40881 33.57142,-98.57143 85.71428,-139.28572 3.57143,-1.42857 35.71537,-26.42421 16.42858,-50.35714 z"
         style="fill:none;stroke:#000000;stroke-width:1px;stroke-linecap:butt;stroke-linejoin:miter;stroke-opacity:1;display:inline" />
      <path
         inkscape:connector-curvature="0"
         id="path3915"
         d="m 354.69186,715.51931 c -4.76545,-1.15473 -9.12125,-3.70013 -12.88387,-7.52897 -9.40365,-9.56912 -14.52387,-26.16325 -15.57178,-50.46662 -0.23983,-5.56221 -0.1776,-7.78598 0.21791,-7.78598 0.30449,0 1.27841,1.06875 2.16426,2.375 5.99061,8.83357 14.10862,14.80304 23.34262,17.1647 19.34696,4.94812 46.62851,-3.82756 95.34478,-30.66964 5.225,-2.87891 9.58768,-5.15848 9.69484,-5.06571 0.39684,0.34354 -6.23218,11.68924 -11.21555,19.19565 -7.54901,11.37099 -14.73977,20.0862 -25.19175,30.53243 -10.30779,10.30211 -14.75716,14.03895 -24.16991,20.29926 -9.51577,6.32882 -18.46277,10.3063 -27.26724,12.12192 -3.47788,0.7172 -11.17221,0.62568 -14.46431,-0.17204 l 0,0 z"
         style="fill:#164759;fill-opacity:1;stroke:none;display:inline" />
      <path
         inkscape:connector-curvature="0"
         id="path3917"
         d="m 451.55578,722.57602 c 0,-0.13478 0.69245,-1.78478 1.53878,-3.66667 2.30568,-5.12687 6.12859,-15.22027 8.11349,-21.42161 12.59326,-39.34449 13.50917,-80.00998 2.65392,-117.83155 -5.99533,-20.88877 -16.16751,-40.29065 -27.28012,-52.03266 -3.9761,-4.2013 -8.85093,-8.39864 -11.43154,-9.84282 -0.69872,-0.39103 -0.6871,-0.92764 0.11612,-5.36373 2.03224,-11.22383 1.4832,-22.05227 -1.53036,-30.18241 -1.57199,-4.241 -5.20367,-9.93408 -8.11634,-12.7233 -1.13517,-1.08706 -2.06395,-2.18835 -2.06395,-2.4473 0,-0.59679 4.971,-0.14716 10.25,0.9271 14.11814,2.87301 27.96801,10.68606 38.93502,21.9642 18.04292,18.5548 28.82187,43.06198 32.89143,74.78247 0.90396,7.046 0.9079,33.3188 0.006,40.75 -3.68666,30.37988 -11.22208,55.30604 -26.25946,86.8628 -5.37844,11.28695 -15.94159,29.84337 -17.23329,30.27393 -0.32439,0.10813 -0.5898,0.0863 -0.5898,-0.0485 z"
         style="fill:#164759;fill-opacity:1;stroke:none;display:inline" />
      <path
         inkscape:connector-curvature="0"
         id="path3919"
         d="M 363.69976,858.0417 C 325.89298,826.24011 283.16254,751.05623 270.6025,694.23774 c -6.72509,-30.42265 -4.65243,-63.72813 5.94367,-95.50818 8.28463,-24.84745 23.14343,-51.02021 41.72279,-73.49182 13.661,-16.5229 34.49126,-36.67942 48.01938,-46.46624 8.97638,-6.4939 19.85084,-11.00589 26.5742,-11.02608 6.50182,-0.0195 10.99455,1.79466 15.45447,6.24056 7.87064,7.8459 9.79318,18.56534 5.20148,29.00176 -3.0361,6.90075 -10.2449,15.31466 -18.21271,21.2574 -27.9324,20.83318 -54.8392,54.99813 -71.24307,90.461 -14.24189,30.78896 -19.21758,55.29733 -17.51687,86.2816 1.98154,36.10074 11.58734,71.54645 28.99703,107 9.04385,18.41713 21.62136,38.63738 31.61095,50.81939 1.04608,1.27567 1.90196,2.45692 1.90196,2.625 0,0.83541 -1.34249,-0.0144 -5.35602,-3.39043 z"
         style="fill:#164759;fill-opacity:1;stroke:none;display:inline" />
      <path
         inkscape:connector-curvature="0"
         id="path3921"
         d="m 358.05578,715.66848 c -12.77966,-1.08803 -22.32484,-11.36737 -27.56093,-29.68074 -0.62901,-2.2 -1.32403,-4.07546 -1.54448,-4.1677 -0.22045,-0.0922 -0.27254,-0.37527 -0.11576,-0.62895 0.34684,-0.56119 -0.84874,-7.96881 -1.24665,-7.72408 -0.1552,0.0955 -0.31284,-1.21083 -0.35031,-2.90285 -0.0375,-1.69203 -0.28609,-6.67642 -0.55246,-11.07642 -0.26638,-4.4 -0.31093,-8.19479 -0.099,-8.43286 0.21192,-0.23808 0.90434,-0.0693 1.53871,0.375 0.63436,0.44432 0.93457,0.81535 0.66713,0.8245 -0.26744,0.009 0.0104,0.43122 0.61749,0.93793 0.60705,0.50671 0.98128,1.04375 0.83162,1.19341 -0.14967,0.14967 0.31692,0.65808 1.03686,1.1298 0.71994,0.47173 1.1844,0.98227 1.03212,1.13455 -0.35414,0.35414 3.77956,4.58767 4.47949,4.58767 0.28909,0 0.80665,0.45 1.15013,1 0.34348,0.55 0.96011,1 1.37028,1 0.41017,0 0.74576,0.17244 0.74576,0.38319 0,0.57421 5.36152,3.66853 6.50582,3.75473 0.5468,0.0412 0.99418,0.21426 0.99418,0.3846 0,0.44845 3.58764,1.48234 4.0825,1.1765 0.22963,-0.14192 0.4175,0.006 0.4175,0.32979 0,0.34156 0.41873,0.47832 0.9995,0.32645 0.54973,-0.14376 1.13952,-0.0348 1.31064,0.24206 0.17113,0.27688 0.95013,0.37563 1.73111,0.21943 0.78099,-0.15619 1.55448,-0.0664 1.71887,0.19963 0.35289,0.57099 10.73988,0.66327 10.73988,0.0954 0,-0.21352 0.9,-0.30238 2,-0.19748 1.2099,0.11538 2,-0.0213 2,-0.3461 0,-0.29525 0.3375,-0.40731 0.75,-0.24902 0.4125,0.15829 1.14375,0.12788 1.625,-0.0676 0.48125,-0.19546 1.77012,-0.42987 2.86414,-0.52091 1.09403,-0.091 2.06107,-0.38132 2.14898,-0.64505 0.0879,-0.26372 0.59904,-0.36464 1.13586,-0.22426 0.53681,0.14038 0.97602,0.011 0.97602,-0.28739 0,-0.29844 0.31474,-0.42184 0.69943,-0.27423 0.38468,0.14762 0.84189,0.0379 1.01601,-0.24385 0.17412,-0.28174 0.64688,-0.38551 1.05058,-0.23059 0.40369,0.15491 0.73398,0.0396 0.73398,-0.25615 0,-0.29579 0.3375,-0.40829 0.75,-0.25 0.4125,0.15829 0.75,0.0254 0.75,-0.2952 0,-0.32065 0.20612,-0.45561 0.45804,-0.29992 0.25193,0.1557 1.09568,0.0191 1.875,-0.30359 0.77933,-0.32268 1.52946,-0.61351 1.66696,-0.6463 0.1375,-0.0328 0.75625,-0.34081 1.375,-0.68449 0.61875,-0.34368 1.125,-0.49117 1.125,-0.32777 0,0.16341 0.28125,0.12158 0.625,-0.0929 0.34375,-0.21453 1.075,-0.45931 1.625,-0.54397 0.55,-0.0847 1.07079,-0.35978 1.15731,-0.61138 0.0865,-0.2516 0.48026,-0.33352 0.875,-0.18204 0.39473,0.15147 0.71769,0.0742 0.71769,-0.17169 0,-0.2459 0.48601,-0.4837 1.08001,-0.52845 0.59401,-0.0447 1.21276,-0.26137 1.375,-0.4814 0.16225,-0.22002 0.74499,-0.47691 1.29499,-0.57085 0.55,-0.0939 1.07547,-0.37659 1.16771,-0.62811 0.0922,-0.25153 0.37349,-0.33014 0.625,-0.17469 0.25151,0.15544 0.45729,0.007 0.45729,-0.33022 0,-0.33706 0.14209,-0.47076 0.31574,-0.2971 0.17366,0.17366 0.79241,0.0509 1.375,-0.27289 0.5826,-0.32375 1.22801,-0.54084 1.43426,-0.48241 0.20625,0.0584 0.375,-0.11878 0.375,-0.39378 0,-0.275 0.16875,-0.46309 0.375,-0.41798 0.77239,0.16894 3.125,-0.70867 3.125,-1.16573 0,-0.26142 0.225,-0.33625 0.5,-0.16629 0.275,0.16996 0.5,0.0575 0.5,-0.25 0,-0.30746 0.225,-0.41996 0.5,-0.25 0.275,0.16996 0.5,0.0575 0.5,-0.25 0,-0.30746 0.21606,-0.42548 0.48013,-0.26228 0.52839,0.32657 6.66885,-2.59718 6.93758,-3.30329 0.0922,-0.24236 0.37349,-0.31348 0.625,-0.15803 0.25151,0.15544 0.45729,0.0311 0.45729,-0.2764 0,-0.30746 0.225,-0.41996 0.5,-0.25 0.275,0.16996 0.5,0.0575 0.5,-0.25 0,-0.30746 0.225,-0.41996 0.5,-0.25 0.275,0.16996 0.5,0.0575 0.5,-0.25 0,-0.30746 0.225,-0.41996 0.5,-0.25 0.275,0.16996 0.5,0.0575 0.5,-0.25 0,-0.30746 0.225,-0.41996 0.5,-0.25 0.275,0.16996 0.5,0.0332 0.5,-0.30382 0,-0.33706 0.14709,-0.46576 0.32686,-0.28598 0.40279,0.40279 9.17314,-4.16569 9.17314,-4.7783 0,-0.2425 0.225,-0.30186 0.5,-0.1319 0.275,0.16996 0.5,0.0575 0.5,-0.25 0,-0.30746 0.225,-0.41996 0.5,-0.25 0.275,0.16996 0.5,0.0332 0.5,-0.30382 0,-0.33706 0.14036,-0.47248 0.31191,-0.30093 0.42587,0.42587 4.18809,-1.53687 4.18809,-2.18492 0,-0.28564 0.225,-0.38029 0.5,-0.21033 0.275,0.16996 0.5,0.0332 0.5,-0.30382 0,-0.33706 0.1452,-0.46764 0.32267,-0.29017 0.17748,0.17748 3.07049,-1.13502 6.42892,-2.91666 3.35843,-1.78164 6.25452,-3.23935 6.43575,-3.23935 0.18123,0 -0.22669,1.0976 -0.90648,2.43911 -0.6798,1.3415 -1.13359,2.579 -1.00843,2.75 0.12516,0.17099 0.0829,0.20376 -0.0938,0.0728 -0.49032,-0.36319 -5.27883,7.67138 -4.91902,8.25356 0.17312,0.28011 0.1112,0.44747 -0.13758,0.3719 -0.51463,-0.15631 -8.26144,11.04161 -8.27791,11.96562 -0.006,0.33165 -0.17467,0.50169 -0.37502,0.37787 -0.37715,-0.23309 -1.18846,1.23263 -1.04844,1.89412 0.0437,0.20625 -0.12044,0.31875 -0.36466,0.25 -0.67231,-0.18926 -3.58819,3.66835 -3.22141,4.26182 0.17991,0.2911 0.0783,0.36832 -0.23221,0.17643 -0.54947,-0.33958 -1.92264,1.56202 -1.69618,2.34892 0.0652,0.22669 -0.0939,0.2808 -0.35374,0.12023 -0.58956,-0.36437 -2.64135,2.1692 -2.25845,2.78876 0.1542,0.24949 0.0907,0.3918 -0.14113,0.31623 -0.4898,-0.15965 -17.46455,17.08213 -17.27784,17.54963 0.0687,0.17214 -0.0812,0.31298 -0.33311,0.31298 -0.83758,0 -3.53583,2.26452 -3.41288,2.86428 0.0665,0.32465 -0.10401,0.60124 -0.37901,0.61465 -1.02239,0.0498 -5.20726,3.43723 -4.90399,3.96945 0.17287,0.30339 0.14027,0.3949 -0.0725,0.20335 -0.44574,-0.40138 -7.57711,4.48621 -7.41817,5.08415 0.058,0.21806 -0.27953,0.3667 -0.75,0.3303 -0.47046,-0.0364 -0.79356,0.2318 -0.718,0.59599 0.0756,0.36419 -0.0885,0.52253 -0.36467,0.35188 -0.73086,-0.4517 -2.61167,0.68752 -2.20947,1.33829 0.20572,0.33286 0.11233,0.41068 -0.23512,0.19595 -0.71058,-0.43917 -2.7149,0.88346 -2.19995,1.45172 0.2045,0.22568 0.11885,0.26594 -0.19034,0.0895 -0.69692,-0.39774 -5.83381,2.34788 -5.33186,2.84983 0.19995,0.19994 -0.0603,0.20091 -0.57824,0.002 -0.70584,-0.27086 -0.83925,-0.19549 -0.53251,0.30083 0.25618,0.4145 0.21483,0.54204 -0.11054,0.34095 -0.76667,-0.47382 -3.69188,0.66971 -3.30684,1.29272 0.19359,0.31323 0.0875,0.38075 -0.26037,0.16575 -0.72773,-0.44977 -4.17256,0.63375 -3.82139,1.20196 0.14041,0.22719 -0.2302,0.28611 -0.82358,0.13094 -0.80376,-0.21018 -0.97549,-0.11484 -0.67344,0.37388 0.27044,0.43758 0.21072,0.53567 -0.17936,0.2946 -0.65054,-0.40206 -6.14186,0.68426 -5.85167,1.15761 0.24202,0.39477 -6.48739,0.38279 -11.21804,-0.0199 l 0,1.3e-4 z"
         style="fill:#95b8e0;fill-opacity:1;stroke:none;display:inline" />
      <path
         inkscape:connector-curvature="0"
         id="path3923"
         d="m 453.29598,719.11274 c 0.19626,-0.61875 0.38321,-1.51875 0.41546,-2 0.0322,-0.48125 0.24869,-0.875 0.48099,-0.875 0.2323,0 0.29519,-0.20578 0.13974,-0.45729 -0.15544,-0.25151 -0.0768,-0.53276 0.17469,-0.625 0.25153,-0.0922 0.53418,-0.61771 0.62812,-1.16771 0.0939,-0.55 0.31706,-1.1125 0.49582,-1.25 0.17877,-0.1375 0.40377,-0.7 0.5,-1.25 0.0962,-0.55 0.29206,-1.1125 0.43516,-1.25 0.60977,-0.58592 1.47895,-3.11307 1.21666,-3.53747 -0.15722,-0.25439 -0.0887,-0.46253 0.15234,-0.46253 0.47028,0 2.38735,-5.33608 2.29031,-6.375 -0.0321,-0.34375 0.16569,-0.625 0.43956,-0.625 0.27387,0 0.36843,-0.3375 0.21014,-0.75 -0.15829,-0.4125 -0.0458,-0.75 0.25,-0.75 0.29579,0 0.41387,-0.32296 0.26239,-0.71769 -0.15147,-0.39474 -0.0788,-0.78849 0.16157,-0.875 0.24033,-0.0865 0.50894,-0.83231 0.59691,-1.65731 0.088,-0.825 0.33744,-1.63118 0.55438,-1.79152 0.21694,-0.16034 0.44194,-0.94784 0.5,-1.75 0.0581,-0.80216 0.28029,-1.58795 0.49384,-1.74619 0.21355,-0.15825 0.43855,-1.00155 0.5,-1.87401 0.0614,-0.87246 0.30671,-1.58674 0.54503,-1.58728 0.23833,-5e-4 0.31564,-0.451 0.17181,-1.001 -0.14383,-0.55 -0.0314,-1 0.25,-1 0.28133,0 0.39665,-0.43921 0.25627,-0.97602 -0.14038,-0.53682 -0.0693,-1.04307 0.15788,-1.125 0.22722,-0.0819 0.48458,-1.04898 0.57192,-2.14898 0.0874,-1.1 0.33544,-2.13065 0.55132,-2.29033 0.21589,-0.15968 0.44089,-1.33937 0.5,-2.62152 0.0591,-1.28216 0.30247,-2.33276 0.54078,-2.33467 0.2383,-0.002 0.32576,-0.56598 0.19433,-1.25348 -0.13142,-0.6875 -0.029,-1.25 0.2275,-1.25 0.25654,0 0.41689,-0.50625 0.35632,-1.125 -0.0606,-0.61875 0.0612,-1.52211 0.27058,-2.00747 0.20938,-0.48536 0.26396,-1.32889 0.12128,-1.8745 -0.14268,-0.54562 -0.0409,-1.12707 0.22612,-1.29211 0.26705,-0.16505 0.43864,-0.89652 0.38131,-1.6255 -0.0573,-0.72898 0.0673,-1.72611 0.27693,-2.21585 0.20964,-0.48973 0.24755,-1.55848 0.0842,-2.375 -0.18555,-0.92775 -0.0902,-1.48457 0.2542,-1.48457 0.36004,0 0.46783,-0.86679 0.3109,-2.5 -0.14126,-1.47009 -0.0374,-2.5 0.25214,-2.5 0.30049,0 0.39916,-1.45218 0.2532,-3.72659 -0.13154,-2.04963 -0.039,-3.92678 0.20569,-4.17145 0.24478,-0.24478 0.34539,-4.80908 0.22369,-10.14841 -0.12164,-5.33695 -0.22969,-11.2003 -0.24011,-13.02967 -0.0104,-1.82937 -0.23664,-3.46066 -0.5027,-3.6251 -0.26605,-0.16443 -0.36694,-1.16976 -0.22419,-2.23405 0.15133,-1.12829 0.0341,-2.07442 -0.28122,-2.26929 -0.30652,-0.18944 -0.41383,-0.96887 -0.24772,-1.7994 0.16117,-0.80585 0.12151,-1.86587 -0.0881,-2.35561 -0.20965,-0.48974 -0.33192,-1.50918 -0.27173,-2.26543 0.0602,-0.75625 -0.1269,-1.375 -0.41575,-1.375 -0.31195,0 -0.4083,-0.58439 -0.23731,-1.43936 0.1655,-0.82752 0.0505,-1.58609 -0.27066,-1.78455 -0.30719,-0.18985 -0.42242,-0.56541 -0.25606,-0.83458 0.16635,-0.26917 0.14713,-0.87237 -0.0427,-1.34045 -0.18985,-0.46808 -0.43113,-1.84864 -0.53617,-3.06792 -0.10504,-1.21927 -0.40207,-2.42794 -0.66006,-2.68593 -0.25798,-0.25798 -0.35881,-0.75639 -0.22405,-1.10756 0.13476,-0.35117 0.0258,-0.77398 -0.24213,-0.93957 -0.26793,-0.16559 -0.36953,-0.75085 -0.22577,-1.30058 0.14375,-0.54972 0.0312,-0.9995 -0.25013,-0.9995 -0.28133,0 -0.39383,-0.45 -0.25,-1 0.14383,-0.55 0.0314,-1 -0.25,-1 -0.28133,0 -0.39383,-0.45 -0.25,-1 0.15199,-0.58122 0.0154,-1 -0.32632,-1 -0.3233,0 -0.44877,-0.225 -0.27881,-0.5 0.16996,-0.275 0.14149,-0.77107 -0.0633,-1.10238 -0.20476,-0.33132 -0.44691,-1.28757 -0.53811,-2.125 -0.0912,-0.83744 -0.3743,-1.5934 -0.62912,-1.67992 -0.25482,-0.0865 -0.33938,-0.48027 -0.1879,-0.875 0.15146,-0.39473 0.013,-0.7177 -0.30761,-0.7177 -0.32066,0 -0.46208,-0.19567 -0.31427,-0.43482 0.3213,-0.51987 -1.6979,-6.74691 -2.26091,-6.97248 -0.21595,-0.0865 -0.2687,-0.48027 -0.11723,-0.875 0.15148,-0.39473 0.0742,-0.7177 -0.17168,-0.7177 -0.2459,0 -0.48498,-0.50292 -0.53128,-1.11759 -0.0463,-0.61468 -0.30655,-1.19172 -0.57832,-1.28231 -0.27177,-0.0906 -0.37019,-0.48767 -0.21872,-0.8824 0.15148,-0.39473 0.0263,-0.7177 -0.27809,-0.7177 -0.30442,0 -0.51658,-0.16875 -0.47147,-0.375 0.16334,-0.7468 -0.70136,-3.125 -1.13622,-3.125 -0.24519,0 -0.40889,-0.16875 -0.36378,-0.375 0.16893,-0.77238 -0.70867,-3.125 -1.16573,-3.125 -0.26142,0 -0.33625,-0.225 -0.16629,-0.5 0.16996,-0.275 0.0575,-0.5 -0.25,-0.5 -0.30746,0 -0.41996,-0.225 -0.25,-0.5 0.16996,-0.275 0.0575,-0.5 -0.25,-0.5 -0.30746,0 -0.41996,-0.225 -0.25,-0.5 0.16996,-0.275 0.0575,-0.5 -0.25,-0.5 -0.30746,0 -0.41996,-0.225 -0.25,-0.5 0.16996,-0.275 0.0575,-0.5 -0.25,-0.5 -0.30746,0 -0.43117,-0.20686 -0.27491,-0.45969 0.15625,-0.25283 -0.0447,-0.78854 -0.44669,-1.19047 -0.40193,-0.40194 -0.5915,-0.87008 -0.42126,-1.04031 0.17024,-0.17024 0.0337,-0.30953 -0.30332,-0.30953 -0.33706,0 -0.47378,-0.225 -0.30382,-0.5 0.16996,-0.275 0.0707,-0.5 -0.22049,-0.5 -0.29123,0 -0.49025,-0.16875 -0.44225,-0.375 0.14469,-0.62183 -1.21465,-3.125 -1.69703,-3.125 -0.24708,0 -0.31526,-0.21679 -0.1515,-0.48176 0.16376,-0.26497 -0.14171,-0.92122 -0.67883,-1.45833 -0.53711,-0.53712 -0.84532,-1.10782 -0.6849,-1.26824 0.16042,-0.16042 0.0292,-0.29167 -0.29167,-0.29167 -0.32083,0 -0.58333,-0.3375 -0.58333,-0.75 0,-0.4125 -0.225,-0.75 -0.5,-0.75 -0.275,0 -0.5,-0.3375 -0.5,-0.75 0,-0.4125 -0.23828,-0.75 -0.52951,-0.75 -0.29123,0 -0.38947,-0.22659 -0.21831,-0.50353 0.17116,-0.27694 -0.0406,-0.63851 -0.47049,-0.80349 -0.42993,-0.16498 -0.78169,-0.62046 -0.78169,-1.01216 0,-0.39171 -0.33621,-0.84122 -0.74713,-0.9989 -0.41092,-0.15769 -0.63215,-0.47273 -0.49163,-0.7001 0.14052,-0.22737 -0.19684,-0.73022 -0.74969,-1.11745 -0.55286,-0.38724 -0.8746,-0.83465 -0.71499,-0.99426 0.15961,-0.15961 -0.29182,-0.67156 -1.00318,-1.13766 -0.71136,-0.4661 -1.29338,-1.02369 -1.29338,-1.23909 0,-0.2154 -2.025,-2.43796 -4.5,-4.93902 -2.475,-2.50106 -4.5,-4.38638 -4.5,-4.18961 0,0.19678 -0.33733,-0.12383 -0.74963,-0.71246 -0.41229,-0.58864 -1.55236,-1.56637 -2.53349,-2.17273 l -1.78386,-1.10249 0.34089,-4.06352 c 0.18748,-2.23494 0.39245,-4.73853 0.45548,-5.56353 0.063,-0.825 0.28085,-1.87962 0.48405,-2.3436 0.39797,-0.90872 0.10188,-12.02784 -0.39695,-14.9064 -0.49292,-2.84446 -0.683,-3.75 -0.78713,-3.75 -0.054,0 -0.1858,-0.67403 -0.2928,-1.49785 -0.27679,-2.13112 -1.72933,-5.75215 -2.30742,-5.75215 -0.26849,0 -0.3491,-0.225 -0.17914,-0.5 0.16996,-0.275 0.0575,-0.5 -0.25,-0.5 -0.30746,0 -0.41996,-0.225 -0.25,-0.5 0.16996,-0.275 0.0951,-0.5 -0.16629,-0.5 -0.26141,0 -0.61648,-0.5625 -0.78903,-1.25 -0.17255,-0.6875 -0.53445,-1.25 -0.80421,-1.25 -0.26976,0 -0.49047,-0.32632 -0.49047,-0.72515 0,-0.39884 -0.39375,-0.95449 -0.875,-1.2348 -0.48125,-0.2803 -0.68713,-0.51648 -0.45751,-0.52484 0.22962,-0.008 -0.50163,-1.05938 -1.625,-2.3356 -1.12337,-1.27622 -2.04249,-2.49289 -2.04249,-2.70373 0,-0.21083 1.21654,-0.4604 2.70342,-0.5546 1.48687,-0.0942 2.61616,-0.0309 2.50952,0.14057 -0.28253,0.4544 4.71758,1.04011 5.38068,0.63029 0.364,-0.22496 0.41993,-0.11857 0.15932,0.3031 -0.30218,0.48895 -0.0776,0.58781 0.90762,0.39949 0.8011,-0.15314 1.18919,-0.0561 1,0.25 -0.18919,0.30611 0.1989,0.40314 1,0.25 0.72005,-0.13765 1.21085,-0.0912 1.09068,0.10326 -0.32228,0.52146 3.66497,1.6083 4.38404,1.195 0.3381,-0.19432 0.44151,-0.16278 0.2298,0.0701 -0.49948,0.54944 5.003,2.87746 5.73372,2.42585 0.36206,-0.22376 0.41309,-0.11268 0.14643,0.31878 -0.29966,0.48486 -0.17947,0.57404 0.44872,0.33298 0.5782,-0.22188 0.74125,-0.14036 0.5,0.25 -0.24126,0.39036 -0.0782,0.47188 0.5,0.25 0.5782,-0.22188 0.74125,-0.14036 0.5,0.25 -0.24126,0.39036 -0.0782,0.47188 0.5,0.25 0.5782,-0.22188 0.74125,-0.14036 0.5,0.25 -0.24745,0.40038 -0.0672,0.46765 0.58379,0.21785 0.51798,-0.19877 0.78132,-0.20094 0.5852,-0.005 -0.53297,0.53297 1.5401,1.811 2.26294,1.39507 0.34326,-0.19752 0.45759,-0.17528 0.25406,0.0494 -0.46117,0.50915 5.17641,4.27597 5.81184,3.88325 0.2545,-0.15729 0.30916,-0.0375 0.12147,0.26618 -0.39832,0.64449 1.36576,1.73824 1.95117,1.20975 0.21775,-0.19657 0.24103,-0.0874 0.0517,0.24251 -0.32723,0.57038 1.31801,1.84283 2.43384,1.88237 0.275,0.01 0.5,0.26616 0.5,0.56981 0,0.30366 0.73125,1.16741 1.625,1.91945 0.89375,0.75204 1.625,1.2073 1.625,1.01168 0,-0.19562 0.34294,-0.0711 0.76208,0.2768 0.41915,0.34786 0.65155,0.74301 0.51645,0.87811 -0.40422,0.40422 5.29569,6.62501 5.79023,6.31936 0.25081,-0.155 0.40264,-0.0964 0.3374,0.13034 -0.22646,0.7869 1.14671,2.6885 1.69618,2.34891 0.30369,-0.18769 0.41428,-0.11816 0.24576,0.15452 -0.43333,0.70114 1.10723,2.74536 1.76336,2.33984 0.32263,-0.19939 0.39944,-0.10325 0.18924,0.23686 -0.41714,0.67493 2.89785,5.21682 3.42375,4.69091 0.19739,-0.19738 0.31349,-0.13388 0.258,0.14112 -0.22523,1.1164 0.0502,1.78885 0.5948,1.45226 0.35734,-0.22085 0.44155,-0.13718 0.22104,0.21961 -0.43917,0.71059 0.88345,2.7149 1.45172,2.19995 0.22567,-0.2045 0.25363,-0.0989 0.0621,0.23458 -0.1915,0.33352 0.26164,1.57102 1.00697,2.75 0.74533,1.17898 2.2913,4.11199 3.43549,6.51778 1.1442,2.4058 2.20749,4.24705 2.36287,4.09167 0.15539,-0.15538 0.26957,0.0137 0.25375,0.37582 -0.0754,1.72606 0.16505,2.44493 0.70602,2.11059 0.34336,-0.21221 0.44208,-0.13804 0.24364,0.18303 -0.42801,0.69254 1.35257,5.27458 1.85461,4.77255 0.20754,-0.20755 0.22889,0.01 0.0474,0.4824 -0.18596,0.48462 -0.0953,0.85976 0.20788,0.85976 0.29579,0 0.40829,0.3375 0.25,0.75 -0.15829,0.4125 -0.0254,0.75 0.2952,0.75 0.32065,0 0.452,0.21198 0.29188,0.47106 -0.36611,0.59238 1.79584,8.04857 2.25198,7.76666 0.18462,-0.1141 0.22305,0.38168 0.0854,1.10173 -0.18832,0.98517 -0.0894,1.20979 0.39949,0.90761 0.42595,-0.26325 0.52817,-0.20485 0.29677,0.16956 -0.41253,0.66749 1.20198,8.64023 1.68876,8.33938 0.18082,-0.11175 0.22675,0.49189 0.10206,1.34143 -0.17168,1.16977 -0.0703,1.44797 0.41773,1.14634 0.4334,-0.26785 0.5222,-0.20051 0.27117,0.20566 -0.44953,0.72736 0.16951,6.64002 0.66326,6.33487 0.19057,-0.11778 0.2564,0.55757 0.14629,1.50078 -0.11011,0.94321 0.0223,1.71492 0.2942,1.71492 0.6304,0 0.66728,42.01557 0.0376,42.81472 -0.24474,0.3106 -0.49619,2.14241 -0.55878,4.0707 -0.0626,1.92828 -0.31076,3.3872 -0.55148,3.24203 -0.24072,-0.14516 -0.34215,0.55428 -0.2254,1.55431 0.11675,1.00003 0.0633,1.81824 -0.11873,1.81824 -0.50815,0 -1.58706,7.40317 -1.17587,8.06849 0.2398,0.38801 0.14443,0.45145 -0.28225,0.18774 -0.48803,-0.30162 -0.58941,-0.0234 -0.41772,1.14634 0.12468,0.84954 0.0705,1.44809 -0.12038,1.33011 -0.47708,-0.29485 -1.07503,3.69607 -0.65548,4.37491 0.2153,0.34838 0.10407,0.40234 -0.30642,0.14864 -0.48803,-0.30162 -0.58941,-0.0234 -0.41772,1.14634 0.12468,0.84954 0.0789,1.45328 -0.10172,1.34165 -0.43465,-0.26863 -1.57482,4.71506 -1.21274,5.30092 0.15461,0.25017 0.0166,0.45486 -0.3067,0.45486 -0.3418,0 -0.4783,0.41883 -0.32614,1.00069 0.14392,0.55038 0.0851,0.89153 -0.13081,0.75812 -0.50585,-0.31264 -1.11326,2.67648 -0.68476,3.3698 0.20299,0.32845 0.0811,0.37513 -0.32473,0.12433 -0.48894,-0.30218 -0.58781,-0.0775 -0.39948,0.90762 0.15503,0.811 0.0575,1.19005 -0.25627,0.99613 -0.31045,-0.19188 -0.39732,0.10457 -0.2244,0.76582 0.18079,0.69133 0.091,0.96074 -0.25,0.75 -0.34098,-0.21074 -0.43079,0.0587 -0.25,0.75 0.18079,0.69133 0.091,0.96074 -0.25,0.75 -0.34098,-0.21074 -0.43079,0.0587 -0.25,0.75 0.18079,0.69133 0.091,0.96074 -0.25,0.75 -0.34098,-0.21074 -0.43079,0.0587 -0.25,0.75 0.18079,0.69133 0.091,0.96074 -0.25,0.75 -0.34098,-0.21074 -0.43079,0.0587 -0.25,0.75 0.18079,0.69133 0.091,0.96074 -0.25,0.75 -0.34098,-0.21074 -0.43079,0.0587 -0.25,0.75 0.18079,0.69133 0.091,0.96074 -0.25,0.75 -0.3324,-0.20544 -0.43712,0.0344 -0.27901,0.63907 0.13922,0.53237 -0.0696,1.26939 -0.46396,1.63781 -0.3944,0.36842 -0.60634,1.09334 -0.47099,1.61093 0.13535,0.51758 0.083,0.84023 -0.11646,0.71699 -0.53433,-0.33024 -1.66791,3.11799 -1.24824,3.79703 0.2228,0.3605 0.13999,0.44509 -0.21869,0.22341 -0.53598,-0.33126 -0.77409,0.36115 -0.71248,2.07187 0.0123,0.34079 -0.14212,0.51799 -0.3431,0.39378 -0.48843,-0.30187 -1.5625,3.26604 -1.17294,3.89636 0.16817,0.27211 0.0622,0.34422 -0.23549,0.16024 -0.65526,-0.40498 -1.32362,1.4351 -0.81827,2.25278 0.21192,0.34289 0.14252,0.44761 -0.16902,0.25507 -0.62301,-0.38504 -1.76654,2.54017 -1.29272,3.30684 0.20109,0.32537 0.0736,0.36672 -0.34095,0.11054 -0.49632,-0.30674 -0.57169,-0.17333 -0.30083,0.53251 0.19877,0.51798 0.19576,0.77614 -0.007,0.5737 -0.4907,-0.49071 -1.77067,2.60506 -1.3551,3.27747 0.17866,0.28908 0.0967,0.38462 -0.18206,0.21232 -0.61487,-0.38001 -2.25157,3.56837 -1.80432,4.35276 0.17437,0.3058 0.12607,0.38237 -0.10733,0.17014 -0.40324,-0.36666 -7.82192,14.22175 -7.8766,15.48888 -0.0143,0.33165 -0.18212,0.50653 -0.3729,0.38862 -0.39695,-0.24533 -2.30763,3.76921 -2.09907,4.41036 0.0756,0.23229 -0.0618,0.29925 -0.3052,0.1488 -0.46354,-0.28648 -2.43319,3.61836 -2.1948,4.3512 0.0756,0.23229 -0.0671,0.29598 -0.31697,0.14153 -0.4649,-0.28732 -1.91411,2.6239 -1.67691,3.36865 0.0722,0.22669 -0.0831,0.27967 -0.34512,0.11774 -0.46739,-0.28886 -1.35411,1.57218 -1.13506,2.38226 0.0613,0.22669 -0.0862,0.28999 -0.32782,0.14068 -0.2416,-0.14932 -0.69235,0.28395 -1.00167,0.96283 -0.71844,1.5768 -1.83799,1.66789 -1.34364,0.10932 l -2e-5,-2e-5 z"
         style="fill:#95b8e0;fill-opacity:1;stroke:none;display:inline" />
      <path
         sodipodi:nodetypes="cccc"
         inkscape:connector-curvature="0"
         id="path3119"
         d="m 414.28571,467.5 c 18.92857,23.21429 8.92858,50.71428 8.92858,50.71428 42.5,28.21429 57.5,105.00001 40.35714,171.78572 31.07143,-91.07143 8.57142,-165.71429 -49.28572,-222.5 z"
         style="fill:none;stroke:#000000;stroke-width:1px;stroke-linecap:butt;stroke-linejoin:miter;stroke-opacity:1;display:inline" />
      <path
         sodipodi:nodetypes="ccc"
         inkscape:connector-curvature="0"
         id="path3121"
         d="m 325.71429,646.07143 c 27.85714,57.14286 114.99999,-7.50001 132.14285,-14.28572 -10,13.92857 -78.21428,113.57144 -132.14285,14.28572 z"
         style="fill:none;stroke:#000000;stroke-width:1px;stroke-linecap:butt;stroke-linejoin:miter;stroke-opacity:1;display:inline" />
      <path
         inkscape:connector-curvature="0"
         id="path3944"
         d="m 469.72434,659.93004 c 1.7023,-15.53805 1.64868,-37.51851 -0.12549,-51.4423 -3.75692,-29.48437 -12.83346,-54.11828 -26.71316,-72.5 -3.69557,-4.89427 -11.50818,-12.71255 -15.73855,-15.75 -2.75431,-1.97761 -3.09516,-2.40132 -2.81553,-3.5 1.52787,-6.00307 1.88537,-8.92843 1.92477,-15.75 0.05,-8.64939 -0.7067,-13.04613 -3.446,-20.02376 -0.96503,-2.45815 -1.7546,-4.52716 -1.7546,-4.5978 0,-1.41112 9.50973,9.45124 16.64906,19.01716 33.61934,45.04623 45.58077,96.16647 35.8243,153.1044 -1.61061,9.39936 -2.71026,13.9123 -3.45006,14.1589 -0.54165,0.18055 -0.61261,-0.36286 -0.35474,-2.7166 z"
         style="fill:#164759;fill-opacity:1;stroke:none;display:inline" />
      <path
         inkscape:connector-curvature="0"
         id="path3946"
         d="m 371.81357,687.908 c -8.66511,-1.85653 -16.8517,-6.4706 -24.64171,-13.88839 -4.7046,-4.4798 -9.95039,-10.61422 -9.4794,-11.08521 0.14216,-0.14216 2.13832,0.74905 4.4359,1.98047 14.84489,7.95633 33.18603,6.80431 59.92742,-3.76408 8.62179,-3.4074 25.17214,-11.64922 37.93019,-18.88866 11.98768,-6.8023 14.58033,-8.18053 14.86094,-7.89992 0.30054,0.30054 -7.93699,11.04945 -12.73725,16.62045 -18.00084,20.89106 -36.60297,33.85466 -53.05932,36.97637 -5.07541,0.96279 -12.609,0.94049 -17.23677,-0.051 l 0,0 z"
         style="fill:#d66f11;fill-opacity:1;stroke:none;display:inline" />
      <path
         sodipodi:nodetypes="ccccccccccccccc"
         inkscape:connector-curvature="0"
         id="path3109"
         d="m 635.53572,651.42857 -30.89286,43.39286 C 538.75,692.32143 479.82143,741.5 467.5,749 l -85.35714,99.75 -181.60715,-12.85714 -26.25,-171.78572 43.75,-45.89286 c -21.2132,41.92133 -6.78571,102.50001 3.21429,118.83929 13.48214,31.16072 47.5,75 83.21429,90 12.76786,4.82143 20.89285,10.00001 47.85714,9.91072 l 36.96429,-5.53572 40.17857,-40.89286 L 467.5,749 c 29.375,-30.53571 61.42858,-58.10714 77.23215,-69.08928 28.39286,-17.67857 56.51786,-35.26786 90.80357,-28.48215 z"
         style="fill:none;stroke:#000000;stroke-width:1px;stroke-linecap:butt;stroke-linejoin:miter;stroke-opacity:1;display:inline" />
      <path
         inkscape:connector-curvature="0"
         id="path3960"
         d="m 483.13029,734.00398 c 19.38197,-19.12422 40.35671,-37.64091 55.99711,-49.43475 11.43525,-8.62289 36.12796,-22.67016 48.00104,-27.30698 14.08235,-5.49962 27.21635,-7.74261 38.96031,-6.65355 3.18376,0.29524 6.42309,0.71057 7.19852,0.92296 l 1.40987,0.38616 -14.57471,20.48813 c -8.01608,11.26847 -14.94606,20.90057 -15.39996,21.40467 -0.62057,0.68922 -1.32376,0.86176 -2.83516,0.69565 -3.76454,-0.41372 -17.8461,0.66319 -25.18242,1.92587 -31.42027,5.40785 -61.3432,18.95868 -97.90812,44.33842 -3.06934,2.13043 -5.76934,3.86672 -6,3.85842 -0.23065,-0.008 4.41943,-4.78955 10.33352,-10.625 l 0,0 z"
         style="fill:#164759;fill-opacity:1;stroke:none;display:inline" />
      <path
         inkscape:connector-curvature="0"
         id="path3962"
         d="m 288.3774,841.80155 c -47.85,-3.42117 -87.14415,-6.37492 -87.32032,-6.56389 -0.17618,-0.18897 -6.1002,-38.25608 -13.1645,-84.59358 -7.0643,-46.3375 -12.94954,-84.70145 -13.07832,-85.25323 -0.18178,-0.77886 4.37353,-5.83973 20.36865,-22.62918 11.33154,-11.89427 20.68921,-21.53954 20.79482,-21.43392 0.10562,0.10561 -0.34293,1.40168 -0.99678,2.88014 -10.77995,24.37538 -10.8216,66.25115 -0.0982,98.67533 2.43358,7.35833 9.86731,23.09666 15.00171,31.76086 9.87551,16.66475 20.63635,30.51194 34.19909,44.00786 15.74911,15.67151 29.21672,24.63606 47.5438,31.64696 12.59901,4.81967 19.69172,6.25179 33,6.66314 8.70971,0.26921 8.83287,0.25786 26.75,-2.46673 l 18,-2.73719 13.77363,-13.93202 c 18.39754,-18.60909 29.96119,-30.55003 34.43971,-35.56338 2.02984,-2.27224 3.78479,-4.03718 3.89988,-3.92209 0.11509,0.1151 -13.19352,15.86796 -29.57471,35.00636 l -29.78397,34.79709 -3.37727,-0.0611 c -1.8575,-0.0336 -42.52727,-2.86025 -90.37727,-6.28141 z"
         style="fill:#164759;fill-opacity:1;stroke:none;display:inline" />
      <path
         sodipodi:nodetypes="caccccccccccc"
         inkscape:connector-curvature="0"
         id="path3106"
         d="m 582.85714,696.42857 c -44.10714,2.14286 -79.03981,28.27368 -113.39285,51.60714 -30.81928,20.93323 -80.53572,77.5 -80.53572,77.5 -42.5,26.96429 -121.11607,10.08929 -148.25892,-12.76785 -47.32143,-36.07143 -53.52679,-99.91072 -43.52679,-150.98215 8.57143,-32.5 39.82143,-73.92857 53.92857,-82.85714 C 223.75,568.57143 206.25,581.78571 196.42857,588.75 c -20.26785,17.76786 -41.07142,33.75 -60.26785,61.11607 -17.05357,30.40179 -28.39286,47.00893 -27.05357,103.70536 4.10714,80.89285 68.39285,170.89285 177.67856,156.78571 58.75,-8.21429 94.10715,-41.07143 121.42858,-63.57143 20.53571,-29.10714 121.96787,-121.08569 133.93216,-133.21069 13.65542,-10.9572 32.31783,-15.36074 40.71069,-17.14645 z"
         style="fill:none;stroke:#000000;stroke-width:1px;stroke-linecap:butt;stroke-linejoin:miter;stroke-opacity:1;display:inline" />
      <path
         inkscape:connector-curvature="0"
         id="path3952"
         d="m 254.3774,910.81993 c -27.3775,-2.1361 -50.34045,-9.8086 -71.25,-23.80642 -31.44444,-21.05036 -54.92791,-54.10271 -66.45864,-93.53875 -5.81462,-19.88648 -7.93787,-40.01713 -6.60318,-62.60514 1.82441,-30.87581 6.34649,-44.87661 25.21781,-78.07667 4.30742,-7.57798 14.96284,-20.33743 27.06241,-32.4062 10.2687,-10.24256 31.94135,-29.33399 38.18955,-33.64118 14.6809,-10.12024 28.56992,-13.11348 43.2279,-9.31611 6.02625,1.56119 6.02417,1.01484 0.026,6.82217 -18.63585,18.04292 -38.31655,49.2149 -45.86343,72.64245 -3.75447,11.6549 -5.93306,34.342 -5.2132,54.28876 1.5947,44.18822 18.79444,80.67505 48.43351,102.74486 6.09123,4.53565 9.44158,6.53563 17.04332,10.17399 16.03089,7.67272 35.06087,12.71757 56.93795,15.09426 7.18581,0.78066 26.08383,0.80675 32.80924,0.0453 13.23314,-1.49825 24.84378,-4.66765 34.65152,-9.45896 6.36308,-3.10851 4.67356,-1.55448 21.07866,-19.38821 19.5674,-21.27141 45.32627,-45.90867 59.21058,-56.63237 5.31035,-4.10152 29.6121,-20.64713 39.25,-26.72299 19.50484,-12.29611 35.68526,-20.12891 50.87355,-24.62744 6.65703,-1.97171 15.12645,-3.81293 15.12645,-3.28844 0,0.19215 -1.96875,1.09158 -4.375,1.99874 -5.97507,2.25259 -13.34201,5.93553 -17.70003,8.84874 -5.11379,3.41841 -71.58277,66.3046 -98.20209,92.90884 -20.91168,20.89982 -29.94071,30.51771 -37.18543,39.6106 -1.93001,2.42237 -4.35924,5.09836 -5.39829,5.94663 -1.03904,0.84827 -5.82666,4.76445 -10.63916,8.70262 -21.48141,17.57867 -35.73305,27.16624 -52.75,35.48676 -21.08821,10.31117 -43.02912,16.34 -65.5,17.99781 -6.4487,0.47576 -17.19022,0.57162 -22,0.19635 l 0,0 z"
         style="fill:#d66f11;fill-opacity:1;stroke:none;display:inline" />
      <path
         sodipodi:nodetypes="caccccaccccccc"
         inkscape:connector-curvature="0"
         id="path3103"
         d="m 281.32749,114.85383 c -34.85027,13.13199 -58.72099,45.98567 -63.13454,79.54951 -5.1562,39.21152 30.30457,90.15612 47.22463,108.84394 18.96619,18.02103 59.95198,39.56029 117.71434,68.5641 55.55297,34.03849 91.51351,63.63961 110.3276,85.98924 51.25,48.21429 69.67259,130.65398 17.17259,232.08255 -27.5,58.92857 -60.24947,105.99605 -103.54063,147.73481 -43.24957,41.69867 -92.34178,84.41337 -151.27035,97.9848 64.28571,-6.78571 133.97647,-59.53157 161.11933,-81.31728 58.57143,-45.71429 125.56966,-133.16067 134.85537,-151.01781 75.71429,-104.64286 74.599,-228.75134 59.599,-273.75134 C 594.60912,364.15921 531.33153,306.91896 502.04582,288.34753 441.33153,242.99039 333.92593,203.97314 301.78307,176.47314 287.89347,165.86654 271.4785,145.91603 281.32749,114.85383 z"
         style="fill:none;stroke:#000000;stroke-width:1px;stroke-linecap:butt;stroke-linejoin:miter;stroke-opacity:1;display:inline" />
      <path
         inkscape:connector-curvature="0"
         id="path3986"
         d="m 525.28653,658.49193 c 22.88267,-58.62152 22.85675,-113.8438 -0.0746,-159.02453 -6.92642,-13.64683 -15.59854,-25.72219 -26.66501,-37.12929 -3.11599,-3.2119 -7.72749,-8.11768 -10.24777,-10.90171 C 478.7403,440.8772 462.13393,426.25028 444.6214,412.965 421.63703,395.52869 390.23005,374.87105 375.52783,367.51938 315.107,337.30664 280.45389,316.99073 266.65999,303.69396 c -4.43745,-4.27752 -12.60838,-14.76425 -19.21984,-24.6671 -15.1302,-22.66247 -25.21196,-45.62153 -28.3335,-64.52349 -0.70912,-4.29393 -1.16124,-11.47895 -0.93441,-14.84925 0.56403,-8.3804 2.73387,-18.19774 5.72395,-25.89778 l 0.92672,-2.38649 35.13806,0 35.13806,0 3.25502,2.76249 c 5.56951,4.72677 8.0289,6.58513 13.50806,10.20695 11.72018,7.74725 25.03994,14.9969 52.67945,28.67225 34.63118,17.13467 65.87633,32.7966 73.53911,36.86218 23.96445,12.71464 43.64384,24.52281 58.86663,35.32159 3.2085,2.27605 7.09043,4.98236 8.62651,6.01401 21.13498,14.19464 48.06506,40.09132 66.56249,64.0083 16.96098,21.93032 29.34041,44.26699 36.03413,65.01777 6.51227,20.18831 9.08342,33.84342 10.39192,55.19038 0.46178,7.53361 0.46231,26.77932 0,34.87418 -2.99778,52.59885 -16.78689,103.58012 -40.31742,149.06197 l -3.24672,6.27557 -26.25095,0 -26.25093,0 2.78924,-7.14556 9.6e-4,0 z"
         style="fill:#728aa7;fill-opacity:1;stroke:none;display:inline" />
      <path
         inkscape:connector-curvature="0"
         id="path3990"
         d="m 521.14489,668.4948 c 2.82141,-6.41085 8.17824,-20.86964 10.4794,-28.28524 15.95039,-51.401 13.96972,-99.11415 -5.7739,-139.08975 -5.06485,-10.25498 -11.73509,-20.59413 -18.72037,-29.01737 -4.49371,-5.41875 -20.82642,-22.72818 -28.33972,-30.03448 -26.18025,-25.45891 -74.43597,-59.61379 -109.8884,-77.77782 -69.62783,-35.67378 -93.95086,-50.54882 -106.40083,-65.07076 -16.38382,-19.11047 -31.60352,-45.31785 -38.90324,-66.98899 -5.11005,-15.17049 -6.51181,-27.33201 -4.62323,-40.11058 3.72298,-25.19062 19.24524,-49.76869 41.4273,-65.59634 5.15609,-3.67904 19.17887,-11.14146 19.78922,-10.53111 0.17101,0.17101 -0.0415,1.73214 -0.47223,3.46919 -4.57997,18.46982 0.30222,36.35127 13.60837,49.84184 4.99396,5.06319 10.70441,9.5826 19.32464,15.29409 13.39649,8.87608 23.86442,14.43996 72.5,38.53492 66.99219,33.18915 84.71381,43.08958 115.25,64.38601 12.18229,8.49612 19.50556,14.07197 26.75,20.36712 26.04654,22.63348 47.48543,47.69784 63.49658,74.23428 4.67506,7.74831 12.2094,23.26659 15.20048,31.308 9.34787,25.13148 13.05306,47.67641 13.05284,79.42265 -4e-4,59.87238 -15.66063,121.29813 -44.14239,173.14434 l -4.05147,7.375 -25.85426,0 -25.85427,0 2.14548,-4.875 z"
         style="fill:#ffb002;fill-opacity:1;stroke:none;display:inline" />
      <path
         inkscape:connector-curvature="0"
         id="path3992"
         d="m 272.4019,931.33166 c 35.67844,-12.17323 68.29201,-32.84956 108.25,-68.62827 40.9759,-36.69016 66.49194,-65.21396 90.20094,-100.83359 13.60304,-20.43677 22.30044,-35.85687 37.53967,-66.55617 16.7687,-33.7804 25.54597,-58.15913 30.22296,-83.94382 8.65982,-47.74249 1.15789,-90.64038 -22.07846,-126.25 -4.41252,-6.76217 -8.80004,-12.33954 -15.33997,-19.5 -3.01402,-3.3 -5.92765,-6.50625 -6.47474,-7.125 l -0.99471,-1.125 61.54743,0 61.54743,0 0.29496,1.375 c 1.74376,8.12871 2.33576,41.71514 1.03333,58.625 -3.80267,49.37128 -16.35492,95.24699 -37.77479,138.05847 -7.472,14.93414 -13.95073,25.67352 -28.31836,46.94152 -0.83599,1.2375 -2.49658,3.825 -3.6902,5.75 -6.19359,9.98868 -21.99608,30.96499 -37.66746,50 -19.61472,23.82471 -31.9939,37.50715 -52.51588,58.04463 -18.46293,18.47687 -26.05029,25.36619 -41.76178,37.91966 -52.39769,41.8657 -100.90343,68.42991 -142.40474,77.98806 -7.83469,1.80441 -8.36375,1.56192 -1.61563,-0.74049 z"
         style="fill:#ffb002;fill-opacity:1;stroke:none;display:inline" />
      <path
         sodipodi:nodetypes="ccccacsccsc"
         inkscape:connector-curvature="0"
         id="path3100"
         d="m 260.27369,297.05671 c 13.40247,13.15519 73.64487,41.23024 124.4366,64.17964 52.05442,23.95956 91.07156,34.43989 110.26446,45.55157 33.0825,14.89975 76.01397,57.32616 81.82235,115.15739 2.52538,42.42641 -18.80917,114.34091 -44.69925,165.15994 -24.77088,48.62219 -78.44567,106.78432 -102.68933,127.49245 16.42241,-22.2413 61.19972,-82.01299 84.14945,-133.16558 21.23116,-47.3221 35.39867,-115.32327 19.99384,-154.46668 -9.59645,-27.7792 -29.90411,-62.30296 -72.83559,-97.15322 -21.71828,-18.43529 -52.2279,-39.1379 -81.76541,-56.38751 -39.78146,-23.23197 -116.18392,-51.12009 -118.67712,-76.368 z"
         style="fill:none;stroke:#000000;stroke-width:1px;stroke-linecap:butt;stroke-linejoin:miter;stroke-opacity:1" />
      <path
         inkscape:connector-curvature="0"
         id="path3980"
         d="m 540.41521,561.92746 c 0,-1.71062 -0.57828,-8.76565 -1.01595,-12.3949 -1.2062,-10.00169 -3.39908,-18.04098 -8.1831,-30 -7.58168,-18.95255 -18.7787,-37.17971 -33.40282,-54.375 -8.72261,-10.25619 -20.37139,-21.81154 -31.39813,-31.1463 -24.44339,-20.69271 -47.99734,-37.36558 -80.25,-56.80564 -12.73961,-7.67871 -20.50587,-11.77522 -47.73887,-25.18106 -26.1284,-12.86209 -36.04536,-18.04371 -46.59515,-24.34602 -4.59126,-2.74276 -10.73715,-6.75979 -13.89542,-9.08223 -7.74377,-5.69439 -13.75712,-12.07938 -15.86485,-16.84533 -0.62245,-1.40746 -1.19297,-3.21842 -1.01392,-3.21842 0.0558,0 1.31237,0.92122 2.79235,2.04715 8.56628,6.51703 21.08399,13.56737 46.94086,26.43847 19.19093,9.55292 36.97956,17.92827 68.01635,32.02385 26.91015,12.22145 41.97577,18.43749 72.98365,30.11289 25.87923,9.74431 30.91315,11.84531 42.33002,17.66721 9.18882,4.68572 12.19537,6.37948 16.81645,9.47361 27.43425,18.36919 49.06978,46.46863 59.19963,76.88637 3.58987,10.7796 5.86602,22.20805 6.26882,31.47545 0.40078,9.2203 -0.73947,24.6038 -2.63595,35.5625 l -0.4002,2.3125 -16.47687,0 -16.4769,0 0,-0.6051 z"
         style="fill:#728aa7;fill-opacity:1;stroke:none" />
      <path
         inkscape:connector-curvature="0"
         id="path3982"
         d="m 450.90406,785.95335 c 0,-0.15049 2.09747,-3.24424 4.66104,-6.875 23.76055,-33.65184 43.90332,-66.89059 55.60977,-91.76489 14.94082,-31.74681 24.61995,-66.13476 28.31192,-100.58649 0.94227,-8.79277 0.79425,-29.89269 -0.26357,-37.57177 -2.68219,-19.47095 -12.02235,-42.20216 -26.06238,-63.42823 -22.75331,-34.39902 -61.79992,-68.19339 -120.75678,-104.51354 -15.52493,-9.56407 -20.038,-12.00336 -49.05627,-26.5146 -38.08435,-19.04493 -47.52329,-24.10753 -59.19373,-31.74869 -7.22237,-4.72881 -12.8055,-9.27789 -16.93629,-13.79949 -3.08093,-3.37242 -6.31371,-8.62432 -6.31371,-10.25711 0,-0.38262 1.5663,0.47416 3.625,1.98291 13.62427,9.98469 42.38329,24.92007 92.375,47.97298 42.55131,19.62187 54.53623,24.71069 92.80909,39.40692 32.17752,12.3557 34.97952,13.53913 47.22746,19.94646 14.93826,7.81473 25.56395,15.55831 36.60459,26.67596 23.24817,23.41031 37.6726,51.26826 42.1209,81.3482 1.13286,7.66052 0.77625,25.82867 -0.72135,36.75 -5.07856,37.03598 -18.72789,81.4937 -37.53295,122.25 -8.87205,19.22844 -20.20267,37.84341 -35.87901,58.94528 -10.41962,14.02582 -26.65005,33.56673 -38.77157,46.67972 l -4.96859,5.375 -3.44429,0 c -1.89435,0 -3.44428,-0.12313 -3.44428,-0.27362 z"
         style="fill:#728aa7;fill-opacity:1;stroke:none" />
      <path
         inkscape:connector-curvature="0"
         id="path3984"
         d="m 432.81706,810.85483 c 0,-0.0443 1.17118,-1.66735 2.60263,-3.6067 6.67,-9.03667 14.62506,-20.06345 16.49492,-22.86417 0.74796,-1.12031 2.75782,-4.0338 4.46636,-6.47443 19.473,-27.8169 34.75176,-52.24094 46.99538,-75.125 3.63856,-6.80069 9.31635,-18.4961 11.45408,-23.59375 l 0.5373,-1.28125 10.34967,0 c 5.79008,0 10.34966,0.0479 10.34966,0.10882 0,0.22743 -5.43717,10.96252 -7.00403,13.82868 -10.72266,19.6143 -25.60148,41.00814 -44.12073,63.44003 -4.01855,4.86756 -4.66484,5.63672 -8.55772,10.18474 -10.17465,11.88696 -19.90356,22.40486 -30.69817,33.18773 -5.48863,5.48266 -12.86935,12.4768 -12.86935,12.1953 z"
         style="fill:#728aa7;fill-opacity:1;stroke:none" />
    </g>
  </g>
</svg>
